<mxfile host="app.diagrams.net" modified="2021-02-18T01:53:16.920Z" agent="5.0 (Macintosh; Intel Mac OS X 10_15_6) AppleWebKit/605.1.15 (KHTML, like Gecko) Version/14.0.3 Safari/605.1.15" etag="BMz1H_s0uXe6Q-vL_iwM" version="14.2.9" type="github">
  <diagram id="C5RBs43oDa-KdzZeNtuy" name="Page-1">
    <mxGraphModel dx="830" dy="620" grid="1" gridSize="10" guides="1" tooltips="1" connect="1" arrows="1" fold="1" page="1" pageScale="1" pageWidth="827" pageHeight="1169" math="0" shadow="0">
      <root>
        <mxCell id="WIyWlLk6GJQsqaUBKTNV-0" />
        <mxCell id="WIyWlLk6GJQsqaUBKTNV-1" parent="WIyWlLk6GJQsqaUBKTNV-0" />
        <mxCell id="EYg9lFcCYxRqpLnLV3cT-0" value="公有云资源供给" style="swimlane;html=1;childLayout=stackLayout;resizeParent=1;resizeParentMax=0;startSize=20;" vertex="1" parent="WIyWlLk6GJQsqaUBKTNV-1">
          <mxGeometry x="160" y="160" width="430" height="480" as="geometry" />
        </mxCell>
        <mxCell id="EYg9lFcCYxRqpLnLV3cT-1" value="信息注册" style="swimlane;html=1;startSize=20;" vertex="1" parent="EYg9lFcCYxRqpLnLV3cT-0">
          <mxGeometry y="20" width="140" height="460" as="geometry" />
        </mxCell>
        <UserObject label="认证信息" treeRoot="1" id="EYg9lFcCYxRqpLnLV3cT-4">
          <mxCell style="whiteSpace=wrap;html=1;align=center;treeFolding=1;treeMoving=1;newEdgeStyle={&quot;edgeStyle&quot;:&quot;elbowEdgeStyle&quot;,&quot;startArrow&quot;:&quot;none&quot;,&quot;endArrow&quot;:&quot;none&quot;};" vertex="1" parent="EYg9lFcCYxRqpLnLV3cT-1">
            <mxGeometry x="30" y="40" width="80" height="30" as="geometry" />
          </mxCell>
        </UserObject>
        <mxCell id="EYg9lFcCYxRqpLnLV3cT-2" value="服务供给" style="swimlane;html=1;startSize=20;" vertex="1" parent="EYg9lFcCYxRqpLnLV3cT-0">
          <mxGeometry x="140" y="20" width="150" height="460" as="geometry" />
        </mxCell>
        <UserObject label="资源模版" treeRoot="1" id="EYg9lFcCYxRqpLnLV3cT-11">
          <mxCell style="whiteSpace=wrap;html=1;align=center;treeFolding=1;treeMoving=1;newEdgeStyle={&quot;edgeStyle&quot;:&quot;elbowEdgeStyle&quot;,&quot;startArrow&quot;:&quot;none&quot;,&quot;endArrow&quot;:&quot;none&quot;};" vertex="1" parent="EYg9lFcCYxRqpLnLV3cT-2">
            <mxGeometry x="35" y="40" width="80" height="30" as="geometry" />
          </mxCell>
        </UserObject>
        <UserObject label="云策略" treeRoot="1" id="EYg9lFcCYxRqpLnLV3cT-17">
          <mxCell style="whiteSpace=wrap;html=1;align=center;treeFolding=1;treeMoving=1;newEdgeStyle={&quot;edgeStyle&quot;:&quot;elbowEdgeStyle&quot;,&quot;startArrow&quot;:&quot;none&quot;,&quot;endArrow&quot;:&quot;none&quot;};" vertex="1" parent="EYg9lFcCYxRqpLnLV3cT-2">
            <mxGeometry x="35" y="360" width="80" height="30" as="geometry" />
          </mxCell>
        </UserObject>
        <mxCell id="EYg9lFcCYxRqpLnLV3cT-3" value="服务申请" style="swimlane;html=1;startSize=20;" vertex="1" parent="EYg9lFcCYxRqpLnLV3cT-0">
          <mxGeometry x="290" y="20" width="140" height="460" as="geometry" />
        </mxCell>
        <UserObject label="服务申请" treeRoot="1" id="EYg9lFcCYxRqpLnLV3cT-20">
          <mxCell style="whiteSpace=wrap;html=1;align=center;treeFolding=1;treeMoving=1;newEdgeStyle={&quot;edgeStyle&quot;:&quot;elbowEdgeStyle&quot;,&quot;startArrow&quot;:&quot;none&quot;,&quot;endArrow&quot;:&quot;none&quot;};" vertex="1" parent="EYg9lFcCYxRqpLnLV3cT-3">
            <mxGeometry x="30" y="40" width="80" height="30" as="geometry" />
          </mxCell>
        </UserObject>
        <mxCell id="EYg9lFcCYxRqpLnLV3cT-10" value="" style="edgeStyle=orthogonalEdgeStyle;rounded=0;orthogonalLoop=1;jettySize=auto;html=1;" edge="1" parent="WIyWlLk6GJQsqaUBKTNV-1" source="EYg9lFcCYxRqpLnLV3cT-7" target="EYg9lFcCYxRqpLnLV3cT-9">
          <mxGeometry relative="1" as="geometry" />
        </mxCell>
        <mxCell id="EYg9lFcCYxRqpLnLV3cT-12" value="" style="edgeStyle=orthogonalEdgeStyle;rounded=0;orthogonalLoop=1;jettySize=auto;html=1;entryX=0;entryY=0.5;entryDx=0;entryDy=0;" edge="1" parent="WIyWlLk6GJQsqaUBKTNV-1" source="EYg9lFcCYxRqpLnLV3cT-7" target="EYg9lFcCYxRqpLnLV3cT-11">
          <mxGeometry relative="1" as="geometry" />
        </mxCell>
        <UserObject label="云平台管理" treeRoot="1" id="EYg9lFcCYxRqpLnLV3cT-7">
          <mxCell style="whiteSpace=wrap;html=1;align=center;treeFolding=1;treeMoving=1;newEdgeStyle={&quot;edgeStyle&quot;:&quot;elbowEdgeStyle&quot;,&quot;startArrow&quot;:&quot;none&quot;,&quot;endArrow&quot;:&quot;none&quot;};" vertex="1" parent="WIyWlLk6GJQsqaUBKTNV-1">
            <mxGeometry x="190" y="330" width="80" height="30" as="geometry" />
          </mxCell>
        </UserObject>
        <mxCell id="EYg9lFcCYxRqpLnLV3cT-8" value="" style="edgeStyle=orthogonalEdgeStyle;rounded=0;orthogonalLoop=1;jettySize=auto;html=1;" edge="1" parent="WIyWlLk6GJQsqaUBKTNV-1" source="EYg9lFcCYxRqpLnLV3cT-4" target="EYg9lFcCYxRqpLnLV3cT-7">
          <mxGeometry relative="1" as="geometry" />
        </mxCell>
        <mxCell id="EYg9lFcCYxRqpLnLV3cT-18" value="" style="edgeStyle=orthogonalEdgeStyle;rounded=0;orthogonalLoop=1;jettySize=auto;html=1;exitX=0.5;exitY=1;exitDx=0;exitDy=0;entryX=0;entryY=0.5;entryDx=0;entryDy=0;" edge="1" parent="WIyWlLk6GJQsqaUBKTNV-1" source="EYg9lFcCYxRqpLnLV3cT-9" target="EYg9lFcCYxRqpLnLV3cT-17">
          <mxGeometry relative="1" as="geometry" />
        </mxCell>
        <UserObject label="资源池" treeRoot="1" id="EYg9lFcCYxRqpLnLV3cT-9">
          <mxCell style="whiteSpace=wrap;html=1;align=center;treeFolding=1;treeMoving=1;newEdgeStyle={&quot;edgeStyle&quot;:&quot;elbowEdgeStyle&quot;,&quot;startArrow&quot;:&quot;none&quot;,&quot;endArrow&quot;:&quot;none&quot;};" vertex="1" parent="WIyWlLk6GJQsqaUBKTNV-1">
            <mxGeometry x="190" y="440" width="80" height="30" as="geometry" />
          </mxCell>
        </UserObject>
        <mxCell id="EYg9lFcCYxRqpLnLV3cT-16" value="" style="edgeStyle=orthogonalEdgeStyle;rounded=0;orthogonalLoop=1;jettySize=auto;html=1;" edge="1" parent="WIyWlLk6GJQsqaUBKTNV-1" source="EYg9lFcCYxRqpLnLV3cT-13" target="EYg9lFcCYxRqpLnLV3cT-15">
          <mxGeometry relative="1" as="geometry" />
        </mxCell>
        <UserObject label="蓝图" treeRoot="1" id="EYg9lFcCYxRqpLnLV3cT-13">
          <mxCell style="whiteSpace=wrap;html=1;align=center;treeFolding=1;treeMoving=1;newEdgeStyle={&quot;edgeStyle&quot;:&quot;elbowEdgeStyle&quot;,&quot;startArrow&quot;:&quot;none&quot;,&quot;endArrow&quot;:&quot;none&quot;};" vertex="1" parent="WIyWlLk6GJQsqaUBKTNV-1">
            <mxGeometry x="335" y="330" width="80" height="30" as="geometry" />
          </mxCell>
        </UserObject>
        <mxCell id="EYg9lFcCYxRqpLnLV3cT-14" value="" style="edgeStyle=orthogonalEdgeStyle;rounded=0;orthogonalLoop=1;jettySize=auto;html=1;" edge="1" parent="WIyWlLk6GJQsqaUBKTNV-1" source="EYg9lFcCYxRqpLnLV3cT-11" target="EYg9lFcCYxRqpLnLV3cT-13">
          <mxGeometry relative="1" as="geometry" />
        </mxCell>
        <mxCell id="EYg9lFcCYxRqpLnLV3cT-21" value="" style="edgeStyle=orthogonalEdgeStyle;rounded=0;orthogonalLoop=1;jettySize=auto;html=1;entryX=0;entryY=0.5;entryDx=0;entryDy=0;" edge="1" parent="WIyWlLk6GJQsqaUBKTNV-1" source="EYg9lFcCYxRqpLnLV3cT-15" target="EYg9lFcCYxRqpLnLV3cT-20">
          <mxGeometry relative="1" as="geometry" />
        </mxCell>
        <UserObject label="服务目录" treeRoot="1" id="EYg9lFcCYxRqpLnLV3cT-15">
          <mxCell style="whiteSpace=wrap;html=1;align=center;treeFolding=1;treeMoving=1;newEdgeStyle={&quot;edgeStyle&quot;:&quot;elbowEdgeStyle&quot;,&quot;startArrow&quot;:&quot;none&quot;,&quot;endArrow&quot;:&quot;none&quot;};" vertex="1" parent="WIyWlLk6GJQsqaUBKTNV-1">
            <mxGeometry x="335" y="440" width="80" height="30" as="geometry" />
          </mxCell>
        </UserObject>
        <mxCell id="EYg9lFcCYxRqpLnLV3cT-25" value="" style="edgeStyle=orthogonalEdgeStyle;rounded=0;orthogonalLoop=1;jettySize=auto;html=1;" edge="1" parent="WIyWlLk6GJQsqaUBKTNV-1" source="EYg9lFcCYxRqpLnLV3cT-22" target="EYg9lFcCYxRqpLnLV3cT-24">
          <mxGeometry relative="1" as="geometry" />
        </mxCell>
        <UserObject label="流程审批" treeRoot="1" id="EYg9lFcCYxRqpLnLV3cT-22">
          <mxCell style="whiteSpace=wrap;html=1;align=center;treeFolding=1;treeMoving=1;newEdgeStyle={&quot;edgeStyle&quot;:&quot;elbowEdgeStyle&quot;,&quot;startArrow&quot;:&quot;none&quot;,&quot;endArrow&quot;:&quot;none&quot;};" vertex="1" parent="WIyWlLk6GJQsqaUBKTNV-1">
            <mxGeometry x="480" y="330" width="80" height="30" as="geometry" />
          </mxCell>
        </UserObject>
        <mxCell id="EYg9lFcCYxRqpLnLV3cT-23" value="" style="edgeStyle=orthogonalEdgeStyle;rounded=0;orthogonalLoop=1;jettySize=auto;html=1;" edge="1" parent="WIyWlLk6GJQsqaUBKTNV-1" source="EYg9lFcCYxRqpLnLV3cT-20" target="EYg9lFcCYxRqpLnLV3cT-22">
          <mxGeometry relative="1" as="geometry" />
        </mxCell>
        <UserObject label="服务实施" treeRoot="1" id="EYg9lFcCYxRqpLnLV3cT-24">
          <mxCell style="whiteSpace=wrap;html=1;align=center;treeFolding=1;treeMoving=1;newEdgeStyle={&quot;edgeStyle&quot;:&quot;elbowEdgeStyle&quot;,&quot;startArrow&quot;:&quot;none&quot;,&quot;endArrow&quot;:&quot;none&quot;};" vertex="1" parent="WIyWlLk6GJQsqaUBKTNV-1">
            <mxGeometry x="480" y="440" width="80" height="30" as="geometry" />
          </mxCell>
        </UserObject>
        <mxCell id="EYg9lFcCYxRqpLnLV3cT-26" value="" style="edgeStyle=orthogonalEdgeStyle;rounded=0;orthogonalLoop=1;jettySize=auto;html=1;" edge="1" parent="WIyWlLk6GJQsqaUBKTNV-1" source="EYg9lFcCYxRqpLnLV3cT-17" target="EYg9lFcCYxRqpLnLV3cT-15">
          <mxGeometry relative="1" as="geometry" />
        </mxCell>
      </root>
    </mxGraphModel>
  </diagram>
</mxfile>
